<svg xmlns="http://www.w3.org/2000/svg" fill="none" version="1.1" width="52" height="45" viewBox="0 0 52 45"><g style="mix-blend-mode:passthrough"><path d="M0,3C0,1.34315,1.34315,0,3,0L49,0C50.6569,0,52,1.34315,52,3L52,36C52,40.9706,47.9706,45,43,45L9,45C4.02944,45,0,40.9706,0,36L0,3ZM11,32.5L11,12.5Q11,12.3895,11.0054,12.2792Q11.0108,12.1689,11.0217,12.0589Q11.0325,11.949,11.0487,11.8397Q11.0649,11.7304,11.0865,11.6221Q11.108,11.5137,11.1349,11.4066Q11.1617,11.2994,11.1938,11.1937Q11.2258,11.088,11.2631,10.984Q11.3003,10.88,11.3425,10.7779Q11.3848,10.6759,11.432,10.576Q11.4793,10.4761,11.5314,10.3787Q11.5834,10.2813,11.6402,10.1865Q11.697,10.0918,11.7584,9.99993Q11.8198,9.90808,11.8856,9.81935Q11.9514,9.73062,12.0215,9.64523Q12.0915,9.55984,12.1657,9.47798Q12.2399,9.39613,12.318,9.31802Q12.3961,9.23991,12.478,9.16572Q12.5598,9.09153,12.6452,9.02145Q12.7306,8.95137,12.8194,8.88556Q12.9081,8.81976,12.9999,8.75839Q13.0918,8.69701,13.1865,8.64022Q13.2813,8.58343,13.3787,8.53135Q13.4761,8.47928,13.576,8.43205Q13.6759,8.38482,13.7779,8.34254Q13.88,8.30027,13.984,8.26305Q14.088,8.22583,14.1937,8.19377Q14.2994,8.1617,14.4066,8.13486Q14.5137,8.10802,14.6221,8.08647Q14.7304,8.06491,14.8397,8.04871Q14.949,8.0325,15.0589,8.02167Q15.1689,8.01084,15.2792,8.00542Q15.3895,8,15.5,8Q15.6105,8,15.7208,8.00542Q15.8311,8.01084,15.9411,8.02167Q16.051,8.0325,16.1603,8.04871Q16.2696,8.06491,16.3779,8.08647Q16.4862,8.10802,16.5934,8.13486Q16.7006,8.1617,16.8063,8.19377Q16.912,8.22583,17.016,8.26305Q17.12,8.30027,17.2221,8.34254Q17.3241,8.38482,17.424,8.43205Q17.5239,8.47928,17.6213,8.53135Q17.7187,8.58343,17.8135,8.64022Q17.9082,8.69701,18.0001,8.75839Q18.0919,8.81976,18.1806,8.88556Q18.2694,8.95137,18.3548,9.02145Q18.4402,9.09153,18.522,9.16572Q18.6039,9.23991,18.682,9.31802Q18.7601,9.39613,18.8343,9.47798Q18.9085,9.55984,18.9785,9.64523Q19.0486,9.73062,19.1144,9.81935Q19.1802,9.90808,19.2416,9.99993Q19.303,10.0918,19.3598,10.1865Q19.4166,10.2813,19.4686,10.3787Q19.5207,10.4761,19.5679,10.576Q19.6152,10.6759,19.6575,10.7779Q19.6997,10.88,19.7369,10.984Q19.7742,11.088,19.8062,11.1937Q19.8383,11.2994,19.8651,11.4066Q19.892,11.5137,19.9135,11.6221Q19.9351,11.7304,19.9513,11.8397Q19.9675,11.949,19.9783,12.0589Q19.9892,12.1689,19.9946,12.2792Q20,12.3895,20,12.5L20,32.5Q20,32.6105,19.9946,32.7208Q19.9892,32.8311,19.9783,32.9411Q19.9675,33.051,19.9513,33.1603Q19.9351,33.2696,19.9135,33.3779Q19.892,33.4862,19.8651,33.5934Q19.8383,33.7006,19.8062,33.8063Q19.7742,33.912,19.7369,34.016Q19.6997,34.12,19.6575,34.2221Q19.6152,34.3241,19.5679,34.424Q19.5207,34.5239,19.4686,34.6213Q19.4166,34.7187,19.3598,34.8135Q19.303,34.9082,19.2416,35.0001Q19.1802,35.0919,19.1144,35.1806Q19.0486,35.2694,18.9785,35.3548Q18.9085,35.4402,18.8343,35.522Q18.7601,35.6039,18.682,35.682Q18.6039,35.7601,18.522,35.8343Q18.4402,35.9085,18.3548,35.9785Q18.2694,36.0486,18.1806,36.1144Q18.0919,36.1802,18.0001,36.2416Q17.9082,36.303,17.8135,36.3598Q17.7187,36.4166,17.6213,36.4686Q17.5239,36.5207,17.424,36.5679Q17.3241,36.6152,17.2221,36.6575Q17.12,36.6997,17.016,36.7369Q16.912,36.7742,16.8063,36.8062Q16.7006,36.8383,16.5934,36.8651Q16.4862,36.892,16.3779,36.9135Q16.2696,36.9351,16.1603,36.9513Q16.051,36.9675,15.9411,36.9783Q15.8311,36.9892,15.7208,36.9946Q15.6105,37,15.5,37Q15.3895,37,15.2792,36.9946Q15.1689,36.9892,15.0589,36.9783Q14.949,36.9675,14.8397,36.9513Q14.7304,36.9351,14.6221,36.9135Q14.5137,36.892,14.4066,36.8651Q14.2994,36.8383,14.1937,36.8062Q14.088,36.7742,13.984,36.7369Q13.88,36.6997,13.7779,36.6575Q13.6759,36.6152,13.576,36.5679Q13.4761,36.5207,13.3787,36.4686Q13.2813,36.4166,13.1865,36.3598Q13.0918,36.303,12.9999,36.2416Q12.9081,36.1802,12.8194,36.1144Q12.7306,36.0486,12.6452,35.9785Q12.5598,35.9085,12.478,35.8343Q12.3961,35.7601,12.318,35.682Q12.2399,35.6039,12.1657,35.522Q12.0915,35.4402,12.0215,35.3548Q11.9514,35.2694,11.8856,35.1806Q11.8198,35.0919,11.7584,35.0001Q11.697,34.9082,11.6402,34.8135Q11.5834,34.7187,11.5314,34.6213Q11.4793,34.5239,11.432,34.424Q11.3848,34.3241,11.3425,34.2221Q11.3003,34.12,11.2631,34.016Q11.2258,33.912,11.1938,33.8063Q11.1617,33.7006,11.1349,33.5934Q11.108,33.4862,11.0865,33.3779Q11.0649,33.2696,11.0487,33.1603Q11.0325,33.051,11.0217,32.9411Q11.0108,32.8311,11.0054,32.7208Q11,32.6105,11,32.5ZM31,12.5L31,32.5Q31,32.6105,31.0054,32.7208Q31.0108,32.8311,31.0217,32.9411Q31.0325,33.051,31.0487,33.1603Q31.0649,33.2696,31.0865,33.3779Q31.108,33.4862,31.1349,33.5934Q31.1617,33.7006,31.1938,33.8063Q31.2258,33.912,31.2631,34.016Q31.3003,34.12,31.3425,34.2221Q31.3848,34.3241,31.432,34.424Q31.4793,34.5239,31.5314,34.6213Q31.5834,34.7187,31.6402,34.8135Q31.697,34.9082,31.7584,35.0001Q31.8198,35.0919,31.8856,35.1806Q31.9514,35.2694,32.0215,35.3548Q32.0915,35.4402,32.1657,35.522Q32.2399,35.6039,32.318,35.682Q32.3961,35.7601,32.478,35.8343Q32.5598,35.9085,32.6452,35.9785Q32.7306,36.0486,32.8194,36.1144Q32.9081,36.1802,32.9999,36.2416Q33.0918,36.303,33.1865,36.3598Q33.2813,36.4166,33.3787,36.4686Q33.4761,36.5207,33.576,36.5679Q33.6759,36.6152,33.7779,36.6575Q33.88,36.6997,33.984,36.7369Q34.088,36.7742,34.1937,36.8062Q34.2994,36.8383,34.4066,36.8651Q34.5137,36.892,34.6221,36.9135Q34.7304,36.9351,34.8397,36.9513Q34.949,36.9675,35.0589,36.9783Q35.1689,36.9892,35.2792,36.9946Q35.3895,37,35.5,37Q35.6105,37,35.7208,36.9946Q35.8311,36.9892,35.9411,36.9783Q36.051,36.9675,36.1603,36.9513Q36.2696,36.9351,36.3779,36.9135Q36.4863,36.892,36.5934,36.8651Q36.7006,36.8383,36.8063,36.8062Q36.912,36.7742,37.016,36.7369Q37.12,36.6997,37.2221,36.6575Q37.3241,36.6152,37.424,36.5679Q37.5239,36.5207,37.6213,36.4686Q37.7187,36.4166,37.8135,36.3598Q37.9082,36.303,38.0001,36.2416Q38.0919,36.1802,38.1806,36.1144Q38.2694,36.0486,38.3548,35.9785Q38.4402,35.9085,38.522,35.8343Q38.6039,35.7601,38.682,35.682Q38.7601,35.6039,38.8343,35.522Q38.9085,35.4402,38.9785,35.3548Q39.0486,35.2694,39.1144,35.1806Q39.1802,35.0919,39.2416,35.0001Q39.303,34.9082,39.3598,34.8135Q39.4166,34.7187,39.4686,34.6213Q39.5207,34.5239,39.5679,34.424Q39.6152,34.3241,39.6575,34.2221Q39.6997,34.12,39.7369,34.016Q39.7742,33.912,39.8062,33.8063Q39.8383,33.7006,39.8651,33.5934Q39.892,33.4862,39.9135,33.3779Q39.9351,33.2696,39.9513,33.1603Q39.9675,33.051,39.9783,32.9411Q39.9892,32.8311,39.9946,32.7208Q40,32.6105,40,32.5L40,12.5Q40,12.3895,39.9946,12.2792Q39.9892,12.1689,39.9783,12.0589Q39.9675,11.949,39.9513,11.8397Q39.9351,11.7304,39.9135,11.6221Q39.892,11.5137,39.8651,11.4066Q39.8383,11.2994,39.8062,11.1937Q39.7742,11.088,39.7369,10.984Q39.6997,10.88,39.6575,10.7779Q39.6152,10.6759,39.5679,10.576Q39.5207,10.4761,39.4686,10.3787Q39.4166,10.2813,39.3598,10.1865Q39.303,10.0918,39.2416,9.99993Q39.1802,9.90808,39.1144,9.81935Q39.0486,9.73062,38.9785,9.64523Q38.9085,9.55984,38.8343,9.47798Q38.7601,9.39613,38.682,9.31802Q38.6039,9.23991,38.522,9.16572Q38.4402,9.09153,38.3548,9.02145Q38.2694,8.95137,38.1806,8.88556Q38.0919,8.81976,38.0001,8.75839Q37.9082,8.69701,37.8135,8.64022Q37.7187,8.58343,37.6213,8.53135Q37.5239,8.47928,37.424,8.43205Q37.3241,8.38482,37.2221,8.34254Q37.12,8.30027,37.016,8.26305Q36.912,8.22583,36.8063,8.19377Q36.7006,8.1617,36.5934,8.13486Q36.4863,8.10802,36.3779,8.08647Q36.2696,8.06491,36.1603,8.04871Q36.051,8.0325,35.9411,8.02167Q35.8311,8.01084,35.7208,8.00542Q35.6105,8,35.5,8Q35.3895,8,35.2792,8.00542Q35.1689,8.01084,35.0589,8.02167Q34.949,8.0325,34.8397,8.04871Q34.7304,8.06491,34.6221,8.08647Q34.5137,8.10802,34.4066,8.13486Q34.2994,8.1617,34.1937,8.19377Q34.088,8.22583,33.984,8.26305Q33.88,8.30027,33.7779,8.34254Q33.6759,8.38482,33.576,8.43205Q33.4761,8.47928,33.3787,8.53135Q33.2813,8.58343,33.1865,8.64022Q33.0918,8.69701,32.9999,8.75839Q32.9081,8.81976,32.8194,8.88556Q32.7306,8.95137,32.6452,9.02145Q32.5598,9.09153,32.478,9.16572Q32.3961,9.23991,32.318,9.31802Q32.2399,9.39613,32.1657,9.47798Q32.0915,9.55984,32.0215,9.64523Q31.9514,9.73062,31.8856,9.81935Q31.8198,9.90808,31.7584,9.99993Q31.697,10.0918,31.6402,10.1865Q31.5834,10.2813,31.5314,10.3787Q31.4793,10.4761,31.432,10.576Q31.3848,10.6759,31.3425,10.7779Q31.3003,10.88,31.263,10.984Q31.2258,11.088,31.1938,11.1937Q31.1617,11.2994,31.1349,11.4066Q31.108,11.5137,31.0865,11.6221Q31.0649,11.7304,31.0487,11.8397Q31.0325,11.949,31.0217,12.0589Q31.0108,12.1689,31.0054,12.2792Q31,12.3895,31,12.5Z" fill-rule="evenodd" fill="#FFFFFF" fill-opacity="1"/></g></svg>