<svg xmlns="http://www.w3.org/2000/svg" fill="none" version="1.1" width="64" height="16" viewBox="0 0 64 16"><g style="mix-blend-mode:passthrough"><path d="M17,0C13.6863,0,11,2.68629,11,6L11,8L4,8Q3.80349,8,3.60793,8.01926Q3.41237,8.03852,3.21964,8.07686Q3.02691,8.1152,2.83886,8.17224Q2.65082,8.22928,2.46927,8.30448Q2.28772,8.37968,2.11441,8.47231Q1.94111,8.56495,1.77772,8.67412Q1.61433,8.7833,1.46243,8.90796Q1.31052,9.03262,1.17157,9.17157Q1.03262,9.31052,0.907958,9.46243Q0.783295,9.61433,0.674121,9.77772Q0.564948,9.94111,0.472315,10.1144Q0.379682,10.2877,0.304482,10.4693Q0.229282,10.6508,0.172239,10.8389Q0.115196,11.0269,0.0768589,11.2196Q0.0385222,11.4124,0.0192611,11.6079Q0,11.8035,0,12Q0,12.1965,0.0192611,12.3921Q0.0385222,12.5876,0.0768589,12.7804Q0.115196,12.9731,0.172239,13.1611Q0.229282,13.3492,0.304482,13.5307Q0.379682,13.7123,0.472315,13.8856Q0.564948,14.0589,0.674121,14.2223Q0.783295,14.3857,0.907958,14.5376Q1.03262,14.6895,1.17157,14.8284Q1.31052,14.9674,1.46243,15.092Q1.61433,15.2167,1.77772,15.3259Q1.94111,15.4351,2.11441,15.5277Q2.28772,15.6203,2.46927,15.6955Q2.65082,15.7707,2.83886,15.8278Q3.02691,15.8848,3.21964,15.9231Q3.41237,15.9615,3.60793,15.9807Q3.80349,16,4,16L60,16Q60.1965,16,60.3921,15.9807Q60.5876,15.9615,60.7804,15.9231Q60.9731,15.8848,61.1611,15.8278Q61.3492,15.7707,61.5307,15.6955Q61.7123,15.6203,61.8856,15.5277Q62.0589,15.4351,62.2223,15.3259Q62.3857,15.2167,62.5376,15.092Q62.6895,14.9674,62.8284,14.8284Q62.9674,14.6895,63.092,14.5376Q63.2167,14.3857,63.3259,14.2223Q63.4351,14.0589,63.5277,13.8856Q63.6203,13.7123,63.6955,13.5307Q63.7707,13.3492,63.8278,13.1611Q63.8848,12.9731,63.9231,12.7804Q63.9615,12.5876,63.9807,12.3921Q64,12.1965,64,12Q64,11.8035,63.9807,11.6079Q63.9615,11.4124,63.9231,11.2196Q63.8848,11.0269,63.8278,10.8389Q63.7707,10.6508,63.6955,10.4693Q63.6203,10.2877,63.5277,10.1144Q63.4351,9.94111,63.3259,9.77772Q63.2167,9.61433,63.092,9.46243Q62.9674,9.31052,62.8284,9.17157Q62.6895,9.03262,62.5376,8.90796Q62.3857,8.7833,62.2223,8.67412Q62.0589,8.56495,61.8856,8.47231Q61.7123,8.37968,61.5307,8.30448Q61.3492,8.22928,61.1611,8.17224Q60.9731,8.1152,60.7804,8.07686Q60.5876,8.03852,60.3921,8.01926Q60.1965,8,60,8L53,8L53,6C53,2.68629,50.3137,0,47,0L17,0Z" fill-rule="evenodd" fill="#FFFFFF" fill-opacity="1"/></g></svg>