<svg width="300" height="300" xmlns="http://www.w3.org/2000/svg"><path d="M300 150l-.081 17.622-.243 10.335-.406 8.644-.567 7.684-.731 7.018-.892 6.516-1.055 6.108-1.216 5.762-1.38 5.46-1.542 5.19-1.704 4.942-1.868 4.714-2.031 4.499-2.195 4.294-2.359 4.099-2.525 3.909-2.689 3.724-2.858 3.546-3.026 3.369-3.197 3.197-3.369 3.026-3.546 2.858-3.724 2.69-3.91 2.524-4.097 2.36-4.295 2.194-4.499 2.031-4.714 1.868-4.942 1.704-5.19 1.541-5.46 1.38-5.762 1.217-6.108 1.055-6.516.892-7.018.73-7.684.567-8.644.407-10.335.243L150 300l-17.622-.081-10.336-.243-8.644-.406-7.682-.567-7.02-.731-6.515-.892-6.108-1.055-5.761-1.216-5.46-1.38-5.19-1.542-4.944-1.704-4.714-1.868-4.498-2.031-4.294-2.195-4.098-2.359-3.909-2.525-3.725-2.689-3.545-2.858-3.37-3.026-3.197-3.197-3.026-3.369-2.858-3.546-2.69-3.724-2.524-3.91-2.36-4.097-2.194-4.295-2.031-4.499-1.868-4.714-1.704-4.942-1.542-5.19-1.38-5.46-1.216-5.762-1.055-6.108-.892-6.516-.73-7.018L.73 186.6l-.406-8.644-.243-10.335L0 150l.081-17.622.243-10.336.406-8.644.568-7.682.73-7.02.892-6.515 1.055-6.108 1.217-5.761 1.379-5.46 1.542-5.19 1.704-4.944 1.868-4.714 2.031-4.498 2.195-4.294 2.359-4.098 2.524-3.909 2.69-3.725 2.858-3.545 3.026-3.37 3.197-3.197 3.37-3.026 3.545-2.858 3.725-2.69 3.909-2.524 4.098-2.36 4.294-2.194 4.498-2.031 4.714-1.868 4.944-1.704 5.19-1.542 5.46-1.38 5.761-1.216 6.108-1.055 6.515-.892 7.02-.73 7.682-.568 8.644-.406 10.336-.243L150 0l17.622.081 10.335.243 8.644.406 7.684.568 7.018.73 6.516.892 6.108 1.055 5.762 1.217 5.46 1.379 5.19 1.542 4.942 1.704 4.714 1.868 4.499 2.031 4.294 2.195 4.099 2.359 3.909 2.524 3.724 2.69 3.546 2.858 3.369 3.026 3.197 3.197 3.026 3.37 2.858 3.545 2.69 3.725 2.524 3.909 2.36 4.098 2.194 4.294 2.031 4.498 1.868 4.714 1.704 4.944 1.541 5.19 1.38 5.46 1.217 5.761 1.055 6.108.892 6.515.73 7.02.567 7.682.407 8.644.243 10.336z" fill="#000"/></svg>